<?xml version="1.0" encoding="utf-8" standalone="no"?>
<!DOCTYPE svg PUBLIC "-//W3C//DTD SVG 1.1//EN"
  "http://www.w3.org/Graphics/SVG/1.1/DTD/svg11.dtd">
<!-- Created with matplotlib (https://matplotlib.org/) -->
<svg height="345.6pt" version="1.1" viewBox="0 0 460.8 345.6" width="460.8pt" xmlns="http://www.w3.org/2000/svg" xmlns:xlink="http://www.w3.org/1999/xlink">
 <defs>
  <style type="text/css">
*{stroke-linecap:butt;stroke-linejoin:round;}
  </style>
 </defs>
 <g id="figure_1">
  <g id="patch_1">
   <path d="M 0 345.6 
L 460.8 345.6 
L 460.8 0 
L 0 0 
z
" style="fill:#ffffff;"/>
  </g>
  <g id="axes_1">
   <g id="patch_2">
    <path d="M 57.6 307.584 
L 219.927273 307.584 
L 219.927273 41.472 
L 57.6 41.472 
z
" style="fill:#ffffff;"/>
   </g>
   <g id="matplotlib.axis_1">
    <g id="xtick_1">
     <g id="line2d_1">
      <defs>
       <path d="M 0 0 
L 0 3.5 
" id="mdeb3023491" style="stroke:#000000;stroke-width:0.8;"/>
      </defs>
      <g>
       <use style="stroke:#000000;stroke-width:0.8;" x="64.978512" xlink:href="#mdeb3023491" y="307.584"/>
      </g>
     </g>
     <g id="text_1">
      <!-- −100 -->
      <defs>
       <path d="M 10.59375 35.5 
L 73.1875 35.5 
L 73.1875 27.203125 
L 10.59375 27.203125 
z
" id="DejaVuSans-8722"/>
       <path d="M 12.40625 8.296875 
L 28.515625 8.296875 
L 28.515625 63.921875 
L 10.984375 60.40625 
L 10.984375 69.390625 
L 28.421875 72.90625 
L 38.28125 72.90625 
L 38.28125 8.296875 
L 54.390625 8.296875 
L 54.390625 0 
L 12.40625 0 
z
" id="DejaVuSans-49"/>
       <path d="M 31.78125 66.40625 
Q 24.171875 66.40625 20.328125 58.90625 
Q 16.5 51.421875 16.5 36.375 
Q 16.5 21.390625 20.328125 13.890625 
Q 24.171875 6.390625 31.78125 6.390625 
Q 39.453125 6.390625 43.28125 13.890625 
Q 47.125 21.390625 47.125 36.375 
Q 47.125 51.421875 43.28125 58.90625 
Q 39.453125 66.40625 31.78125 66.40625 
z
M 31.78125 74.21875 
Q 44.046875 74.21875 50.515625 64.515625 
Q 56.984375 54.828125 56.984375 36.375 
Q 56.984375 17.96875 50.515625 8.265625 
Q 44.046875 -1.421875 31.78125 -1.421875 
Q 19.53125 -1.421875 13.0625 8.265625 
Q 6.59375 17.96875 6.59375 36.375 
Q 6.59375 54.828125 13.0625 64.515625 
Q 19.53125 74.21875 31.78125 74.21875 
z
" id="DejaVuSans-48"/>
      </defs>
      <g transform="translate(51.244919 322.182437)scale(0.1 -0.1)">
       <use xlink:href="#DejaVuSans-8722"/>
       <use x="83.789062" xlink:href="#DejaVuSans-49"/>
       <use x="147.412109" xlink:href="#DejaVuSans-48"/>
       <use x="211.035156" xlink:href="#DejaVuSans-48"/>
      </g>
     </g>
    </g>
    <g id="xtick_2">
     <g id="line2d_2">
      <g>
       <use style="stroke:#000000;stroke-width:0.8;" x="101.871074" xlink:href="#mdeb3023491" y="307.584"/>
      </g>
     </g>
     <g id="text_2">
      <!-- −50 -->
      <defs>
       <path d="M 10.796875 72.90625 
L 49.515625 72.90625 
L 49.515625 64.59375 
L 19.828125 64.59375 
L 19.828125 46.734375 
Q 21.96875 47.46875 24.109375 47.828125 
Q 26.265625 48.1875 28.421875 48.1875 
Q 40.625 48.1875 47.75 41.5 
Q 54.890625 34.8125 54.890625 23.390625 
Q 54.890625 11.625 47.5625 5.09375 
Q 40.234375 -1.421875 26.90625 -1.421875 
Q 22.3125 -1.421875 17.546875 -0.640625 
Q 12.796875 0.140625 7.71875 1.703125 
L 7.71875 11.625 
Q 12.109375 9.234375 16.796875 8.0625 
Q 21.484375 6.890625 26.703125 6.890625 
Q 35.15625 6.890625 40.078125 11.328125 
Q 45.015625 15.765625 45.015625 23.390625 
Q 45.015625 31 40.078125 35.4375 
Q 35.15625 39.890625 26.703125 39.890625 
Q 22.75 39.890625 18.8125 39.015625 
Q 14.890625 38.140625 10.796875 36.28125 
z
" id="DejaVuSans-53"/>
      </defs>
      <g transform="translate(91.318731 322.182437)scale(0.1 -0.1)">
       <use xlink:href="#DejaVuSans-8722"/>
       <use x="83.789062" xlink:href="#DejaVuSans-53"/>
       <use x="147.412109" xlink:href="#DejaVuSans-48"/>
      </g>
     </g>
    </g>
    <g id="xtick_3">
     <g id="line2d_3">
      <g>
       <use style="stroke:#000000;stroke-width:0.8;" x="138.763636" xlink:href="#mdeb3023491" y="307.584"/>
      </g>
     </g>
     <g id="text_3">
      <!-- 0 -->
      <g transform="translate(135.582386 322.182437)scale(0.1 -0.1)">
       <use xlink:href="#DejaVuSans-48"/>
      </g>
     </g>
    </g>
    <g id="xtick_4">
     <g id="line2d_4">
      <g>
       <use style="stroke:#000000;stroke-width:0.8;" x="175.656198" xlink:href="#mdeb3023491" y="307.584"/>
      </g>
     </g>
     <g id="text_4">
      <!-- 50 -->
      <g transform="translate(169.293698 322.182437)scale(0.1 -0.1)">
       <use xlink:href="#DejaVuSans-53"/>
       <use x="63.623047" xlink:href="#DejaVuSans-48"/>
      </g>
     </g>
    </g>
    <g id="xtick_5">
     <g id="line2d_5">
      <g>
       <use style="stroke:#000000;stroke-width:0.8;" x="212.54876" xlink:href="#mdeb3023491" y="307.584"/>
      </g>
     </g>
     <g id="text_5">
      <!-- 100 -->
      <g transform="translate(203.00501 322.182437)scale(0.1 -0.1)">
       <use xlink:href="#DejaVuSans-49"/>
       <use x="63.623047" xlink:href="#DejaVuSans-48"/>
       <use x="127.246094" xlink:href="#DejaVuSans-48"/>
      </g>
     </g>
    </g>
   </g>
   <g id="matplotlib.axis_2">
    <g id="ytick_1">
     <g id="line2d_6">
      <defs>
       <path d="M 0 0 
L -3.5 0 
" id="m0c97311ab4" style="stroke:#000000;stroke-width:0.8;"/>
      </defs>
      <g>
       <use style="stroke:#000000;stroke-width:0.8;" x="57.6" xlink:href="#m0c97311ab4" y="283.449899"/>
      </g>
     </g>
     <g id="text_6">
      <!-- −100 -->
      <g transform="translate(23.132812 287.249117)scale(0.1 -0.1)">
       <use xlink:href="#DejaVuSans-8722"/>
       <use x="83.789062" xlink:href="#DejaVuSans-49"/>
       <use x="147.412109" xlink:href="#DejaVuSans-48"/>
       <use x="211.035156" xlink:href="#DejaVuSans-48"/>
      </g>
     </g>
    </g>
    <g id="ytick_2">
     <g id="line2d_7">
      <g>
       <use style="stroke:#000000;stroke-width:0.8;" x="57.6" xlink:href="#m0c97311ab4" y="246.557337"/>
      </g>
     </g>
     <g id="text_7">
      <!-- −50 -->
      <g transform="translate(29.495313 250.356555)scale(0.1 -0.1)">
       <use xlink:href="#DejaVuSans-8722"/>
       <use x="83.789062" xlink:href="#DejaVuSans-53"/>
       <use x="147.412109" xlink:href="#DejaVuSans-48"/>
      </g>
     </g>
    </g>
    <g id="ytick_3">
     <g id="line2d_8">
      <g>
       <use style="stroke:#000000;stroke-width:0.8;" x="57.6" xlink:href="#m0c97311ab4" y="209.664775"/>
      </g>
     </g>
     <g id="text_8">
      <!-- 0 -->
      <g transform="translate(44.2375 213.463993)scale(0.1 -0.1)">
       <use xlink:href="#DejaVuSans-48"/>
      </g>
     </g>
    </g>
    <g id="ytick_4">
     <g id="line2d_9">
      <g>
       <use style="stroke:#000000;stroke-width:0.8;" x="57.6" xlink:href="#m0c97311ab4" y="172.772213"/>
      </g>
     </g>
     <g id="text_9">
      <!-- 50 -->
      <g transform="translate(37.875 176.571431)scale(0.1 -0.1)">
       <use xlink:href="#DejaVuSans-53"/>
       <use x="63.623047" xlink:href="#DejaVuSans-48"/>
      </g>
     </g>
    </g>
    <g id="ytick_5">
     <g id="line2d_10">
      <g>
       <use style="stroke:#000000;stroke-width:0.8;" x="57.6" xlink:href="#m0c97311ab4" y="135.879651"/>
      </g>
     </g>
     <g id="text_10">
      <!-- 100 -->
      <g transform="translate(31.5125 139.678869)scale(0.1 -0.1)">
       <use xlink:href="#DejaVuSans-49"/>
       <use x="63.623047" xlink:href="#DejaVuSans-48"/>
       <use x="127.246094" xlink:href="#DejaVuSans-48"/>
      </g>
     </g>
    </g>
    <g id="ytick_6">
     <g id="line2d_11">
      <g>
       <use style="stroke:#000000;stroke-width:0.8;" x="57.6" xlink:href="#m0c97311ab4" y="98.987089"/>
      </g>
     </g>
     <g id="text_11">
      <!-- 150 -->
      <g transform="translate(31.5125 102.786307)scale(0.1 -0.1)">
       <use xlink:href="#DejaVuSans-49"/>
       <use x="63.623047" xlink:href="#DejaVuSans-53"/>
       <use x="127.246094" xlink:href="#DejaVuSans-48"/>
      </g>
     </g>
    </g>
    <g id="ytick_7">
     <g id="line2d_12">
      <g>
       <use style="stroke:#000000;stroke-width:0.8;" x="57.6" xlink:href="#m0c97311ab4" y="62.094527"/>
      </g>
     </g>
     <g id="text_12">
      <!-- 200 -->
      <defs>
       <path d="M 19.1875 8.296875 
L 53.609375 8.296875 
L 53.609375 0 
L 7.328125 0 
L 7.328125 8.296875 
Q 12.9375 14.109375 22.625 23.890625 
Q 32.328125 33.6875 34.8125 36.53125 
Q 39.546875 41.84375 41.421875 45.53125 
Q 43.3125 49.21875 43.3125 52.78125 
Q 43.3125 58.59375 39.234375 62.25 
Q 35.15625 65.921875 28.609375 65.921875 
Q 23.96875 65.921875 18.8125 64.3125 
Q 13.671875 62.703125 7.8125 59.421875 
L 7.8125 69.390625 
Q 13.765625 71.78125 18.9375 73 
Q 24.125 74.21875 28.421875 74.21875 
Q 39.75 74.21875 46.484375 68.546875 
Q 53.21875 62.890625 53.21875 53.421875 
Q 53.21875 48.921875 51.53125 44.890625 
Q 49.859375 40.875 45.40625 35.40625 
Q 44.1875 33.984375 37.640625 27.21875 
Q 31.109375 20.453125 19.1875 8.296875 
z
" id="DejaVuSans-50"/>
      </defs>
      <g transform="translate(31.5125 65.893745)scale(0.1 -0.1)">
       <use xlink:href="#DejaVuSans-50"/>
       <use x="63.623047" xlink:href="#DejaVuSans-48"/>
       <use x="127.246094" xlink:href="#DejaVuSans-48"/>
      </g>
     </g>
    </g>
   </g>
   <g id="line2d_13">
    <defs>
     <path d="M 0 1.5 
C 0.397805 1.5 0.77937 1.341951 1.06066 1.06066 
C 1.341951 0.77937 1.5 0.397805 1.5 0 
C 1.5 -0.397805 1.341951 -0.77937 1.06066 -1.06066 
C 0.77937 -1.341951 0.397805 -1.5 0 -1.5 
C -0.397805 -1.5 -0.77937 -1.341951 -1.06066 -1.06066 
C -1.341951 -0.77937 -1.5 -0.397805 -1.5 0 
C -1.5 0.397805 -1.341951 0.77937 -1.06066 1.06066 
C -0.77937 1.341951 -0.397805 1.5 0 1.5 
z
" id="m12b907bc40" style="stroke:#ff0000;"/>
    </defs>
    <g clip-path="url(#pcc4d9e49b1)">
     <use style="fill:#ff0000;stroke:#ff0000;" x="212.54876" xlink:href="#m12b907bc40" y="209.664775"/>
     <use style="fill:#ff0000;stroke:#ff0000;" x="212.511613" xlink:href="#m12b907bc40" y="207.323725"/>
     <use style="fill:#ff0000;stroke:#ff0000;" x="212.400207" xlink:href="#m12b907bc40" y="204.985033"/>
     <use style="fill:#ff0000;stroke:#ff0000;" x="212.214656" xlink:href="#m12b907bc40" y="202.651053"/>
     <use style="fill:#ff0000;stroke:#ff0000;" x="211.955145" xlink:href="#m12b907bc40" y="200.324135"/>
     <use style="fill:#ff0000;stroke:#ff0000;" x="211.621937" xlink:href="#m12b907bc40" y="198.006622"/>
     <use style="fill:#ff0000;stroke:#ff0000;" x="211.215367" xlink:href="#m12b907bc40" y="195.700848"/>
     <use style="fill:#ff0000;stroke:#ff0000;" x="210.735844" xlink:href="#m12b907bc40" y="193.409135"/>
     <use style="fill:#ff0000;stroke:#ff0000;" x="210.183851" xlink:href="#m12b907bc40" y="191.133789"/>
     <use style="fill:#ff0000;stroke:#ff0000;" x="209.559944" xlink:href="#m12b907bc40" y="188.877103"/>
     <use style="fill:#ff0000;stroke:#ff0000;" x="208.864752" xlink:href="#m12b907bc40" y="186.641348"/>
     <use style="fill:#ff0000;stroke:#ff0000;" x="208.098973" xlink:href="#m12b907bc40" y="184.428776"/>
     <use style="fill:#ff0000;stroke:#ff0000;" x="207.263379" xlink:href="#m12b907bc40" y="182.241614"/>
     <use style="fill:#ff0000;stroke:#ff0000;" x="206.358812" xlink:href="#m12b907bc40" y="180.082065"/>
     <use style="fill:#ff0000;stroke:#ff0000;" x="205.386183" xlink:href="#m12b907bc40" y="177.952304"/>
     <use style="fill:#ff0000;stroke:#ff0000;" x="204.34647" xlink:href="#m12b907bc40" y="175.854474"/>
     <use style="fill:#ff0000;stroke:#ff0000;" x="203.240721" xlink:href="#m12b907bc40" y="173.790688"/>
     <use style="fill:#ff0000;stroke:#ff0000;" x="202.070049" xlink:href="#m12b907bc40" y="171.763025"/>
     <use style="fill:#ff0000;stroke:#ff0000;" x="200.835633" xlink:href="#m12b907bc40" y="169.773525"/>
     <use style="fill:#ff0000;stroke:#ff0000;" x="199.538715" xlink:href="#m12b907bc40" y="167.824192"/>
     <use style="fill:#ff0000;stroke:#ff0000;" x="198.180602" xlink:href="#m12b907bc40" y="165.91699"/>
     <use style="fill:#ff0000;stroke:#ff0000;" x="196.762661" xlink:href="#m12b907bc40" y="164.053837"/>
     <use style="fill:#ff0000;stroke:#ff0000;" x="195.286321" xlink:href="#m12b907bc40" y="162.236611"/>
     <use style="fill:#ff0000;stroke:#ff0000;" x="193.753066" xlink:href="#m12b907bc40" y="160.467141"/>
     <use style="fill:#ff0000;stroke:#ff0000;" x="192.164442" xlink:href="#m12b907bc40" y="158.747209"/>
     <use style="fill:#ff0000;stroke:#ff0000;" x="190.522048" xlink:href="#m12b907bc40" y="157.078547"/>
     <use style="fill:#ff0000;stroke:#ff0000;" x="188.827537" xlink:href="#m12b907bc40" y="155.462834"/>
     <use style="fill:#ff0000;stroke:#ff0000;" x="187.082617" xlink:href="#m12b907bc40" y="153.901699"/>
     <use style="fill:#ff0000;stroke:#ff0000;" x="185.289043" xlink:href="#m12b907bc40" y="152.396712"/>
     <use style="fill:#ff0000;stroke:#ff0000;" x="183.448622" xlink:href="#m12b907bc40" y="150.949389"/>
     <use style="fill:#ff0000;stroke:#ff0000;" x="181.563207" xlink:href="#m12b907bc40" y="149.561187"/>
     <use style="fill:#ff0000;stroke:#ff0000;" x="179.634697" xlink:href="#m12b907bc40" y="148.233505"/>
     <use style="fill:#ff0000;stroke:#ff0000;" x="177.665033" xlink:href="#m12b907bc40" y="146.967678"/>
     <use style="fill:#ff0000;stroke:#ff0000;" x="175.656198" xlink:href="#m12b907bc40" y="145.764983"/>
     <use style="fill:#ff0000;stroke:#ff0000;" x="173.610216" xlink:href="#m12b907bc40" y="144.626629"/>
     <use style="fill:#ff0000;stroke:#ff0000;" x="171.529146" xlink:href="#m12b907bc40" y="143.553763"/>
     <use style="fill:#ff0000;stroke:#ff0000;" x="169.415085" xlink:href="#m12b907bc40" y="142.547465"/>
     <use style="fill:#ff0000;stroke:#ff0000;" x="167.270159" xlink:href="#m12b907bc40" y="141.608749"/>
     <use style="fill:#ff0000;stroke:#ff0000;" x="165.09653" xlink:href="#m12b907bc40" y="140.738559"/>
     <use style="fill:#ff0000;stroke:#ff0000;" x="162.896387" xlink:href="#m12b907bc40" y="139.937772"/>
     <use style="fill:#ff0000;stroke:#ff0000;" x="160.671943" xlink:href="#m12b907bc40" y="139.207194"/>
     <use style="fill:#ff0000;stroke:#ff0000;" x="158.42544" xlink:href="#m12b907bc40" y="138.547561"/>
     <use style="fill:#ff0000;stroke:#ff0000;" x="156.159139" xlink:href="#m12b907bc40" y="137.959538"/>
     <use style="fill:#ff0000;stroke:#ff0000;" x="153.875322" xlink:href="#m12b907bc40" y="137.443715"/>
     <use style="fill:#ff0000;stroke:#ff0000;" x="151.576289" xlink:href="#m12b907bc40" y="137.000612"/>
     <use style="fill:#ff0000;stroke:#ff0000;" x="149.264354" xlink:href="#m12b907bc40" y="136.630677"/>
     <use style="fill:#ff0000;stroke:#ff0000;" x="146.941847" xlink:href="#m12b907bc40" y="136.33428"/>
     <use style="fill:#ff0000;stroke:#ff0000;" x="144.611104" xlink:href="#m12b907bc40" y="136.111721"/>
     <use style="fill:#ff0000;stroke:#ff0000;" x="142.274474" xlink:href="#m12b907bc40" y="135.963224"/>
     <use style="fill:#ff0000;stroke:#ff0000;" x="139.934308" xlink:href="#m12b907bc40" y="135.888938"/>
     <use style="fill:#ff0000;stroke:#ff0000;" x="137.592964" xlink:href="#m12b907bc40" y="135.888938"/>
     <use style="fill:#ff0000;stroke:#ff0000;" x="135.252799" xlink:href="#m12b907bc40" y="135.963224"/>
     <use style="fill:#ff0000;stroke:#ff0000;" x="132.916168" xlink:href="#m12b907bc40" y="136.111721"/>
     <use style="fill:#ff0000;stroke:#ff0000;" x="130.585426" xlink:href="#m12b907bc40" y="136.33428"/>
     <use style="fill:#ff0000;stroke:#ff0000;" x="128.262918" xlink:href="#m12b907bc40" y="136.630677"/>
     <use style="fill:#ff0000;stroke:#ff0000;" x="125.950984" xlink:href="#m12b907bc40" y="137.000612"/>
     <use style="fill:#ff0000;stroke:#ff0000;" x="123.651951" xlink:href="#m12b907bc40" y="137.443715"/>
     <use style="fill:#ff0000;stroke:#ff0000;" x="121.368134" xlink:href="#m12b907bc40" y="137.959538"/>
     <use style="fill:#ff0000;stroke:#ff0000;" x="119.101833" xlink:href="#m12b907bc40" y="138.547561"/>
     <use style="fill:#ff0000;stroke:#ff0000;" x="116.85533" xlink:href="#m12b907bc40" y="139.207194"/>
     <use style="fill:#ff0000;stroke:#ff0000;" x="114.630886" xlink:href="#m12b907bc40" y="139.937772"/>
     <use style="fill:#ff0000;stroke:#ff0000;" x="112.430742" xlink:href="#m12b907bc40" y="140.738559"/>
     <use style="fill:#ff0000;stroke:#ff0000;" x="110.257113" xlink:href="#m12b907bc40" y="141.608749"/>
     <use style="fill:#ff0000;stroke:#ff0000;" x="108.112188" xlink:href="#m12b907bc40" y="142.547465"/>
     <use style="fill:#ff0000;stroke:#ff0000;" x="105.998126" xlink:href="#m12b907bc40" y="143.553763"/>
     <use style="fill:#ff0000;stroke:#ff0000;" x="103.917057" xlink:href="#m12b907bc40" y="144.626629"/>
     <use style="fill:#ff0000;stroke:#ff0000;" x="101.871074" xlink:href="#m12b907bc40" y="145.764983"/>
     <use style="fill:#ff0000;stroke:#ff0000;" x="99.86224" xlink:href="#m12b907bc40" y="146.967678"/>
     <use style="fill:#ff0000;stroke:#ff0000;" x="97.892576" xlink:href="#m12b907bc40" y="148.233505"/>
     <use style="fill:#ff0000;stroke:#ff0000;" x="95.964065" xlink:href="#m12b907bc40" y="149.561187"/>
     <use style="fill:#ff0000;stroke:#ff0000;" x="94.078651" xlink:href="#m12b907bc40" y="150.949389"/>
     <use style="fill:#ff0000;stroke:#ff0000;" x="92.23823" xlink:href="#m12b907bc40" y="152.396712"/>
     <use style="fill:#ff0000;stroke:#ff0000;" x="90.444656" xlink:href="#m12b907bc40" y="153.901699"/>
     <use style="fill:#ff0000;stroke:#ff0000;" x="88.699735" xlink:href="#m12b907bc40" y="155.462834"/>
     <use style="fill:#ff0000;stroke:#ff0000;" x="87.005225" xlink:href="#m12b907bc40" y="157.078547"/>
     <use style="fill:#ff0000;stroke:#ff0000;" x="85.362831" xlink:href="#m12b907bc40" y="158.747209"/>
     <use style="fill:#ff0000;stroke:#ff0000;" x="83.774207" xlink:href="#m12b907bc40" y="160.467141"/>
     <use style="fill:#ff0000;stroke:#ff0000;" x="82.240952" xlink:href="#m12b907bc40" y="162.236611"/>
     <use style="fill:#ff0000;stroke:#ff0000;" x="80.764611" xlink:href="#m12b907bc40" y="164.053837"/>
     <use style="fill:#ff0000;stroke:#ff0000;" x="79.346671" xlink:href="#m12b907bc40" y="165.91699"/>
     <use style="fill:#ff0000;stroke:#ff0000;" x="77.988558" xlink:href="#m12b907bc40" y="167.824192"/>
     <use style="fill:#ff0000;stroke:#ff0000;" x="76.69164" xlink:href="#m12b907bc40" y="169.773525"/>
     <use style="fill:#ff0000;stroke:#ff0000;" x="75.457224" xlink:href="#m12b907bc40" y="171.763025"/>
     <use style="fill:#ff0000;stroke:#ff0000;" x="74.286552" xlink:href="#m12b907bc40" y="173.790688"/>
     <use style="fill:#ff0000;stroke:#ff0000;" x="73.180803" xlink:href="#m12b907bc40" y="175.854474"/>
     <use style="fill:#ff0000;stroke:#ff0000;" x="72.14109" xlink:href="#m12b907bc40" y="177.952304"/>
     <use style="fill:#ff0000;stroke:#ff0000;" x="71.16846" xlink:href="#m12b907bc40" y="180.082065"/>
     <use style="fill:#ff0000;stroke:#ff0000;" x="70.263893" xlink:href="#m12b907bc40" y="182.241614"/>
     <use style="fill:#ff0000;stroke:#ff0000;" x="69.4283" xlink:href="#m12b907bc40" y="184.428776"/>
     <use style="fill:#ff0000;stroke:#ff0000;" x="68.662521" xlink:href="#m12b907bc40" y="186.641348"/>
     <use style="fill:#ff0000;stroke:#ff0000;" x="67.967328" xlink:href="#m12b907bc40" y="188.877103"/>
     <use style="fill:#ff0000;stroke:#ff0000;" x="67.343421" xlink:href="#m12b907bc40" y="191.133789"/>
     <use style="fill:#ff0000;stroke:#ff0000;" x="66.791429" xlink:href="#m12b907bc40" y="193.409135"/>
     <use style="fill:#ff0000;stroke:#ff0000;" x="66.311906" xlink:href="#m12b907bc40" y="195.700848"/>
     <use style="fill:#ff0000;stroke:#ff0000;" x="65.905336" xlink:href="#m12b907bc40" y="198.006622"/>
     <use style="fill:#ff0000;stroke:#ff0000;" x="65.572128" xlink:href="#m12b907bc40" y="200.324135"/>
     <use style="fill:#ff0000;stroke:#ff0000;" x="65.312617" xlink:href="#m12b907bc40" y="202.651053"/>
     <use style="fill:#ff0000;stroke:#ff0000;" x="65.127066" xlink:href="#m12b907bc40" y="204.985033"/>
     <use style="fill:#ff0000;stroke:#ff0000;" x="65.01566" xlink:href="#m12b907bc40" y="207.323725"/>
     <use style="fill:#ff0000;stroke:#ff0000;" x="64.978512" xlink:href="#m12b907bc40" y="209.664775"/>
    </g>
   </g>
   <g id="line2d_14">
    <path clip-path="url(#pcc4d9e49b1)" d="M 211.946915 213.167062 
L 212.089664 210.136654 
L 212.133156 207.168092 
L 212.079438 204.261375 
L 211.930555 201.416502 
L 211.688555 198.633475 
L 211.355484 195.912293 
L 210.933389 193.252956 
L 210.424316 190.655464 
L 209.830311 188.119817 
L 209.153422 185.646015 
L 208.395694 183.234058 
L 207.559175 180.883946 
L 206.64591 178.595679 
L 205.657947 176.369257 
L 204.597332 174.20468 
L 203.466111 172.101949 
L 202.266331 170.061062 
L 201.000039 168.08202 
L 199.669281 166.164824 
L 198.276103 164.309472 
L 196.822553 162.515966 
L 195.310676 160.784305 
L 193.742519 159.114488 
L 192.120129 157.506517 
L 190.445553 155.960391 
L 188.720836 154.476109 
L 186.948025 153.053673 
L 185.129168 151.693082 
L 183.26631 150.394336 
L 181.361498 149.157435 
L 179.416778 147.982379 
L 177.434197 146.869168 
L 175.415802 145.817802 
L 173.363639 144.828282 
L 171.279755 143.900606 
L 169.166196 143.034775 
L 167.025009 142.23079 
L 164.85824 141.488649 
L 162.667935 140.808353 
L 160.456143 140.189903 
L 158.224908 139.633297 
L 155.976277 139.138537 
L 153.712297 138.705622 
L 151.435015 138.334551 
L 149.146477 138.025326 
L 146.84873 137.777946 
L 144.543819 137.592411 
L 142.233793 137.468721 
L 139.920696 137.406876 
L 137.606576 137.406876 
L 135.29348 137.468721 
L 132.983453 137.592411 
L 130.678543 137.777946 
L 128.380795 138.025326 
L 126.092257 138.334551 
L 123.814975 138.705622 
L 121.550996 139.138537 
L 119.302365 139.633297 
L 117.07113 140.189903 
L 114.859337 140.808353 
L 112.669033 141.488649 
L 110.502264 142.23079 
L 108.361077 143.034775 
L 106.247518 143.900606 
L 104.163633 144.828282 
L 102.111471 145.817802 
L 100.093075 146.869168 
L 98.110495 147.982379 
L 96.165775 149.157435 
L 94.260963 150.394336 
L 92.398105 151.693082 
L 90.579247 153.053673 
L 88.806437 154.476109 
L 87.08172 155.960391 
L 85.407143 157.506517 
L 83.784754 159.114488 
L 82.216597 160.784305 
L 80.70472 162.515966 
L 79.251169 164.309472 
L 77.857992 166.164824 
L 76.527234 168.08202 
L 75.260941 170.061062 
L 74.061162 172.101949 
L 72.929941 174.20468 
L 71.869326 176.369257 
L 70.881362 178.595679 
L 69.968098 180.883946 
L 69.131579 183.234058 
L 68.373851 185.646015 
L 67.696962 188.119817 
L 67.102957 190.655464 
L 66.593884 193.252956 
L 66.171789 195.912293 
L 65.838718 198.633475 
L 65.596718 201.416502 
L 65.447835 204.261375 
L 65.394117 207.168092 
L 65.437609 210.136654 
L 65.580358 213.167062 
" style="fill:none;stroke:#1f77b4;stroke-linecap:square;stroke-width:1.5;"/>
   </g>
   <g id="patch_3">
    <path d="M 57.6 307.584 
L 57.6 41.472 
" style="fill:none;stroke:#000000;stroke-linecap:square;stroke-linejoin:miter;stroke-width:0.8;"/>
   </g>
   <g id="patch_4">
    <path d="M 219.927273 307.584 
L 219.927273 41.472 
" style="fill:none;stroke:#000000;stroke-linecap:square;stroke-linejoin:miter;stroke-width:0.8;"/>
   </g>
   <g id="patch_5">
    <path d="M 57.6 307.584 
L 219.927273 307.584 
" style="fill:none;stroke:#000000;stroke-linecap:square;stroke-linejoin:miter;stroke-width:0.8;"/>
   </g>
   <g id="patch_6">
    <path d="M 57.6 41.472 
L 219.927273 41.472 
" style="fill:none;stroke:#000000;stroke-linecap:square;stroke-linejoin:miter;stroke-width:0.8;"/>
   </g>
  </g>
  <g id="axes_2">
   <g id="patch_7">
    <path d="M 252.392727 307.584 
L 382.254545 307.584 
L 382.254545 41.472 
L 252.392727 41.472 
z
" style="fill:#ffffff;"/>
   </g>
   <g id="PathCollection_1">
    <path clip-path="url(#pfc2bdd9d55)" d="M 252.392727 235.332221 
L 252.392727 239.458909 
L 254.920794 239.458909 
z
" style="fill:#481b6d;"/>
    <path clip-path="url(#pfc2bdd9d55)" d="M 382.254545 239.458909 
L 382.254545 235.332221 
L 379.726478 239.458909 
z
" style="fill:#481b6d;"/>
    <path clip-path="url(#pfc2bdd9d55)" d="M 261.398694 109.597091 
L 252.392727 109.597091 
L 252.392727 118.755564 
z
" style="fill:#481b6d;"/>
    <path clip-path="url(#pfc2bdd9d55)" d="M 382.254545 118.755564 
L 382.254545 109.597091 
L 373.248579 109.597091 
z
" style="fill:#481b6d;"/>
   </g>
   <g id="PathCollection_2">
    <path clip-path="url(#pfc2bdd9d55)" d="M 256.164022 225.029818 
L 252.392727 217.7031 
L 252.392727 225.029818 
L 252.392727 235.332221 
L 254.920794 239.458909 
L 265.003485 239.458909 
z
" style="fill:#3f4788;"/>
    <path clip-path="url(#pfc2bdd9d55)" d="M 382.254545 235.332221 
L 382.254545 225.029818 
L 382.254545 217.7031 
L 378.483251 225.029818 
L 369.643787 239.458909 
L 379.726478 239.458909 
z
" style="fill:#3f4788;"/>
    <path clip-path="url(#pfc2bdd9d55)" d="M 257.292567 124.026182 
L 266.821818 114.335563 
L 273.034574 109.597091 
L 266.821818 109.597091 
L 261.398694 109.597091 
L 252.392727 118.755564 
L 252.392727 124.026182 
L 252.392727 131.208173 
z
" style="fill:#3f4788;"/>
    <path clip-path="url(#pfc2bdd9d55)" d="M 382.254545 131.208173 
L 382.254545 124.026182 
L 382.254545 118.755564 
L 373.248579 109.597091 
L 367.825455 109.597091 
L 361.612699 109.597091 
L 367.825455 114.335563 
L 377.354706 124.026182 
z
" style="fill:#3f4788;"/>
   </g>
   <g id="PathCollection_3">
    <path clip-path="url(#pfc2bdd9d55)" d="M 266.821818 239.458909 
L 277.840962 239.458909 
L 266.821818 225.968591 
L 266.246713 225.029818 
L 258.819602 210.600727 
L 253.223752 196.171636 
L 252.392727 192.58763 
L 252.392727 196.171636 
L 252.392727 210.600727 
L 252.392727 217.7031 
L 256.164022 225.029818 
L 265.003485 239.458909 
z
" style="fill:#2e6e8e;"/>
    <path clip-path="url(#pfc2bdd9d55)" d="M 367.825455 239.458909 
L 369.643787 239.458909 
L 378.483251 225.029818 
L 382.254545 217.7031 
L 382.254545 210.600727 
L 382.254545 196.171636 
L 382.254545 192.58763 
L 381.423521 196.171636 
L 375.827671 210.600727 
L 368.40056 225.029818 
L 367.825455 225.968591 
L 356.80631 239.458909 
z
" style="fill:#2e6e8e;"/>
    <path clip-path="url(#pfc2bdd9d55)" d="M 257.531159 138.455273 
L 266.821818 124.837392 
L 267.559738 124.026182 
L 281.250909 113.583919 
L 289.091788 109.597091 
L 281.250909 109.597091 
L 273.034574 109.597091 
L 266.821818 114.335563 
L 257.292567 124.026182 
L 252.392727 131.208173 
L 252.392727 138.455273 
L 252.392727 150.983026 
z
" style="fill:#2e6e8e;"/>
    <path clip-path="url(#pfc2bdd9d55)" d="M 382.254545 150.983026 
L 382.254545 138.455273 
L 382.254545 131.208173 
L 377.354706 124.026182 
L 367.825455 114.335563 
L 361.612699 109.597091 
L 353.396364 109.597091 
L 345.555485 109.597091 
L 353.396364 113.583919 
L 367.087535 124.026182 
L 367.825455 124.837392 
L 377.116114 138.455273 
z
" style="fill:#2e6e8e;"/>
   </g>
   <g id="PathCollection_4">
    <path clip-path="url(#pfc2bdd9d55)" d="M 266.821818 225.968591 
L 277.840962 239.458909 
L 281.250909 239.458909 
L 295.68 239.458909 
L 296.922742 239.458909 
L 295.68 238.951762 
L 281.250909 227.175105 
L 279.498599 225.029818 
L 269.595784 210.600727 
L 266.821818 205.236153 
L 263.306443 196.171636 
L 259.960765 181.742545 
L 259.284167 167.313455 
L 261.695558 152.884364 
L 266.821818 140.386285 
L 267.87786 138.455273 
L 281.003326 124.026182 
L 281.250909 123.83735 
L 295.68 116.500634 
L 310.109091 112.832276 
L 324.538182 112.832276 
L 338.967273 116.500634 
L 353.396364 123.83735 
L 353.643947 124.026182 
L 366.769413 138.455273 
L 367.825455 140.386285 
L 372.951714 152.884364 
L 375.363106 167.313455 
L 374.686508 181.742545 
L 371.34083 196.171636 
L 367.825455 205.236153 
L 365.051489 210.600727 
L 355.148674 225.029818 
L 353.396364 227.175105 
L 338.967273 238.951762 
L 337.724531 239.458909 
L 338.967273 239.458909 
L 353.396364 239.458909 
L 356.80631 239.458909 
L 367.825455 225.968591 
L 368.40056 225.029818 
L 375.827671 210.600727 
L 381.423521 196.171636 
L 382.254545 192.58763 
L 382.254545 181.742545 
L 382.254545 167.313455 
L 382.254545 152.884364 
L 382.254545 150.983026 
L 377.116114 138.455273 
L 367.825455 124.837392 
L 367.087535 124.026182 
L 353.396364 113.583919 
L 345.555485 109.597091 
L 338.967273 109.597091 
L 324.538182 109.597091 
L 310.109091 109.597091 
L 295.68 109.597091 
L 289.091788 109.597091 
L 281.250909 113.583919 
L 267.559738 124.026182 
L 266.821818 124.837392 
L 257.531159 138.455273 
L 252.392727 150.983026 
L 252.392727 152.884364 
L 252.392727 167.313455 
L 252.392727 181.742545 
L 252.392727 192.58763 
L 253.223752 196.171636 
L 258.819602 210.600727 
L 266.246713 225.029818 
z
" style="fill:#21918c;"/>
   </g>
   <g id="PathCollection_5">
    <path clip-path="url(#pfc2bdd9d55)" d="M 281.250909 227.175105 
L 295.68 238.951762 
L 296.922742 239.458909 
L 310.109091 239.458909 
L 324.538182 239.458909 
L 337.724531 239.458909 
L 338.967273 238.951762 
L 353.396364 227.175105 
L 355.148674 225.029818 
L 365.051489 210.600727 
L 367.825455 205.236153 
L 371.34083 196.171636 
L 374.686508 181.742545 
L 375.363106 167.313455 
L 372.951714 152.884364 
L 367.825455 140.386285 
L 366.769413 138.455273 
L 353.643947 124.026182 
L 353.396364 123.83735 
L 338.967273 116.500634 
L 324.538182 112.832276 
L 310.109091 112.832276 
L 295.68 116.500634 
L 281.250909 123.83735 
L 281.003326 124.026182 
L 267.87786 138.455273 
L 266.821818 140.386285 
L 261.695558 152.884364 
L 259.284167 167.313455 
L 259.960765 181.742545 
L 263.306443 196.171636 
L 266.821818 205.236153 
L 269.595784 210.600727 
L 279.498599 225.029818 
z
M 301.895651 225.029818 
L 295.68 222.010939 
L 283.933603 210.600727 
L 281.250909 207.142017 
L 275.578239 196.171636 
L 271.117335 181.742545 
L 270.215204 167.313455 
L 273.430393 152.884364 
L 281.250909 138.584256 
L 281.356717 138.455273 
L 295.68 127.958023 
L 306.409833 124.026182 
L 310.109091 123.085707 
L 324.538182 123.085707 
L 328.237439 124.026182 
L 338.967273 127.958023 
L 353.290555 138.455273 
L 353.396364 138.584256 
L 361.21688 152.884364 
L 364.432069 167.313455 
L 363.529938 181.742545 
L 359.069033 196.171636 
L 353.396364 207.142017 
L 350.713669 210.600727 
L 338.967273 222.010939 
L 332.751621 225.029818 
L 324.538182 228.381618 
L 310.109091 228.381618 
z
" style="fill:#2db27d;"/>
   </g>
   <g id="PathCollection_6">
    <path clip-path="url(#pfc2bdd9d55)" d="M 310.109091 228.381618 
L 324.538182 228.381618 
L 332.751621 225.029818 
L 338.967273 222.010939 
L 350.713669 210.600727 
L 353.396364 207.142017 
L 359.069033 196.171636 
L 363.529938 181.742545 
L 364.432069 167.313455 
L 361.21688 152.884364 
L 353.396364 138.584256 
L 353.290555 138.455273 
L 338.967273 127.958023 
L 328.237439 124.026182 
L 324.538182 123.085707 
L 310.109091 123.085707 
L 306.409833 124.026182 
L 295.68 127.958023 
L 281.356717 138.455273 
L 281.250909 138.584256 
L 273.430393 152.884364 
L 270.215204 167.313455 
L 271.117335 181.742545 
L 275.578239 196.171636 
L 281.250909 207.142017 
L 283.933603 210.600727 
L 295.68 222.010939 
L 301.895651 225.029818 
z
M 292.907286 196.171636 
L 286.215929 181.742545 
L 284.862733 167.313455 
L 289.685517 152.884364 
L 295.68 145.576939 
L 307.364199 138.455273 
L 310.109091 137.449434 
L 324.538182 137.449434 
L 327.283074 138.455273 
L 338.967273 145.576939 
L 344.961756 152.884364 
L 349.784539 167.313455 
L 348.431343 181.742545 
L 341.739986 196.171636 
L 338.967273 199.746405 
L 324.538182 209.047882 
L 310.109091 209.047882 
L 295.68 199.746405 
z
" style="fill:#73d056;"/>
   </g>
   <g id="PathCollection_7">
    <path clip-path="url(#pfc2bdd9d55)" d="M 295.68 199.746405 
L 310.109091 209.047882 
L 324.538182 209.047882 
L 338.967273 199.746405 
L 341.739986 196.171636 
L 348.431343 181.742545 
L 349.784539 167.313455 
L 344.961756 152.884364 
L 338.967273 145.576939 
L 327.283074 138.455273 
L 324.538182 137.449434 
L 310.109091 137.449434 
L 307.364199 138.455273 
L 295.68 145.576939 
L 289.685517 152.884364 
L 284.862733 167.313455 
L 286.215929 181.742545 
L 292.907286 196.171636 
z
" style="fill:#d0e11c;"/>
   </g>
   <g id="matplotlib.axis_3">
    <g id="xtick_6">
     <g id="line2d_15">
      <g>
       <use style="stroke:#000000;stroke-width:0.8;" x="263.214545" xlink:href="#mdeb3023491" y="307.584"/>
      </g>
     </g>
     <g id="text_13">
      <!-- −50 -->
      <g transform="translate(252.662202 322.182437)scale(0.1 -0.1)">
       <use xlink:href="#DejaVuSans-8722"/>
       <use x="83.789062" xlink:href="#DejaVuSans-53"/>
       <use x="147.412109" xlink:href="#DejaVuSans-48"/>
      </g>
     </g>
    </g>
    <g id="xtick_7">
     <g id="line2d_16">
      <g>
       <use style="stroke:#000000;stroke-width:0.8;" x="317.323636" xlink:href="#mdeb3023491" y="307.584"/>
      </g>
     </g>
     <g id="text_14">
      <!-- 0 -->
      <g transform="translate(314.142386 322.182437)scale(0.1 -0.1)">
       <use xlink:href="#DejaVuSans-48"/>
      </g>
     </g>
    </g>
    <g id="xtick_8">
     <g id="line2d_17">
      <g>
       <use style="stroke:#000000;stroke-width:0.8;" x="371.432727" xlink:href="#mdeb3023491" y="307.584"/>
      </g>
     </g>
     <g id="text_15">
      <!-- 50 -->
      <g transform="translate(365.070227 322.182437)scale(0.1 -0.1)">
       <use xlink:href="#DejaVuSans-53"/>
       <use x="63.623047" xlink:href="#DejaVuSans-48"/>
      </g>
     </g>
    </g>
   </g>
   <g id="matplotlib.axis_4">
    <g id="ytick_8">
     <g id="line2d_18">
      <g>
       <use style="stroke:#000000;stroke-width:0.8;" x="252.392727" xlink:href="#m0c97311ab4" y="282.746182"/>
      </g>
     </g>
     <g id="text_16">
      <!-- −100 -->
      <g transform="translate(217.92554 286.545401)scale(0.1 -0.1)">
       <use xlink:href="#DejaVuSans-8722"/>
       <use x="83.789062" xlink:href="#DejaVuSans-49"/>
       <use x="147.412109" xlink:href="#DejaVuSans-48"/>
       <use x="211.035156" xlink:href="#DejaVuSans-48"/>
      </g>
     </g>
    </g>
    <g id="ytick_9">
     <g id="line2d_19">
      <g>
       <use style="stroke:#000000;stroke-width:0.8;" x="252.392727" xlink:href="#m0c97311ab4" y="228.637091"/>
      </g>
     </g>
     <g id="text_17">
      <!-- −50 -->
      <g transform="translate(224.28804 232.43631)scale(0.1 -0.1)">
       <use xlink:href="#DejaVuSans-8722"/>
       <use x="83.789062" xlink:href="#DejaVuSans-53"/>
       <use x="147.412109" xlink:href="#DejaVuSans-48"/>
      </g>
     </g>
    </g>
    <g id="ytick_10">
     <g id="line2d_20">
      <g>
       <use style="stroke:#000000;stroke-width:0.8;" x="252.392727" xlink:href="#m0c97311ab4" y="174.528"/>
      </g>
     </g>
     <g id="text_18">
      <!-- 0 -->
      <g transform="translate(239.030227 178.327219)scale(0.1 -0.1)">
       <use xlink:href="#DejaVuSans-48"/>
      </g>
     </g>
    </g>
    <g id="ytick_11">
     <g id="line2d_21">
      <g>
       <use style="stroke:#000000;stroke-width:0.8;" x="252.392727" xlink:href="#m0c97311ab4" y="120.418909"/>
      </g>
     </g>
     <g id="text_19">
      <!-- 50 -->
      <g transform="translate(232.667727 124.218128)scale(0.1 -0.1)">
       <use xlink:href="#DejaVuSans-53"/>
       <use x="63.623047" xlink:href="#DejaVuSans-48"/>
      </g>
     </g>
    </g>
    <g id="ytick_12">
     <g id="line2d_22">
      <g>
       <use style="stroke:#000000;stroke-width:0.8;" x="252.392727" xlink:href="#m0c97311ab4" y="66.309818"/>
      </g>
     </g>
     <g id="text_20">
      <!-- 100 -->
      <g transform="translate(226.305227 70.109037)scale(0.1 -0.1)">
       <use xlink:href="#DejaVuSans-49"/>
       <use x="63.623047" xlink:href="#DejaVuSans-48"/>
       <use x="127.246094" xlink:href="#DejaVuSans-48"/>
      </g>
     </g>
    </g>
   </g>
   <g id="patch_8">
    <path d="M 252.392727 307.584 
L 252.392727 41.472 
" style="fill:none;stroke:#000000;stroke-linecap:square;stroke-linejoin:miter;stroke-width:0.8;"/>
   </g>
   <g id="patch_9">
    <path d="M 382.254545 307.584 
L 382.254545 41.472 
" style="fill:none;stroke:#000000;stroke-linecap:square;stroke-linejoin:miter;stroke-width:0.8;"/>
   </g>
   <g id="patch_10">
    <path d="M 252.392727 307.584 
L 382.254545 307.584 
" style="fill:none;stroke:#000000;stroke-linecap:square;stroke-linejoin:miter;stroke-width:0.8;"/>
   </g>
   <g id="patch_11">
    <path d="M 252.392727 41.472 
L 382.254545 41.472 
" style="fill:none;stroke:#000000;stroke-linecap:square;stroke-linejoin:miter;stroke-width:0.8;"/>
   </g>
  </g>
  <g id="axes_3">
   <g id="patch_12">
    <path clip-path="url(#pcb58a3ff93)" d="M 390.370909 307.584 
L 390.370909 269.568 
L 390.370909 79.488 
L 390.370909 41.472 
L 403.676509 41.472 
L 403.676509 79.488 
L 403.676509 269.568 
L 403.676509 307.584 
z
" style="fill:#ffffff;stroke:#ffffff;stroke-linejoin:miter;stroke-width:0.01;"/>
   </g>
   <g id="QuadMesh_1">
    <path clip-path="url(#pcb58a3ff93)" d="M 390.370909 307.584 
L 403.676509 307.584 
L 403.676509 269.568 
L 390.370909 269.568 
L 390.370909 307.584 
" style="fill:#481b6d;"/>
    <path clip-path="url(#pcb58a3ff93)" d="M 390.370909 269.568 
L 403.676509 269.568 
L 403.676509 231.552 
L 390.370909 231.552 
L 390.370909 269.568 
" style="fill:#3f4788;"/>
    <path clip-path="url(#pcb58a3ff93)" d="M 390.370909 231.552 
L 403.676509 231.552 
L 403.676509 193.536 
L 390.370909 193.536 
L 390.370909 231.552 
" style="fill:#2e6e8e;"/>
    <path clip-path="url(#pcb58a3ff93)" d="M 390.370909 193.536 
L 403.676509 193.536 
L 403.676509 155.52 
L 390.370909 155.52 
L 390.370909 193.536 
" style="fill:#21918c;"/>
    <path clip-path="url(#pcb58a3ff93)" d="M 390.370909 155.52 
L 403.676509 155.52 
L 403.676509 117.504 
L 390.370909 117.504 
L 390.370909 155.52 
" style="fill:#2db27d;"/>
    <path clip-path="url(#pcb58a3ff93)" d="M 390.370909 117.504 
L 403.676509 117.504 
L 403.676509 79.488 
L 390.370909 79.488 
L 390.370909 117.504 
" style="fill:#73d056;"/>
    <path clip-path="url(#pcb58a3ff93)" d="M 390.370909 79.488 
L 403.676509 79.488 
L 403.676509 41.472 
L 390.370909 41.472 
L 390.370909 79.488 
" style="fill:#d0e11c;"/>
   </g>
   <g id="matplotlib.axis_5"/>
   <g id="matplotlib.axis_6">
    <g id="ytick_13">
     <g id="line2d_23">
      <defs>
       <path d="M 0 0 
L 3.5 0 
" id="mbd7c5d8261" style="stroke:#000000;stroke-width:0.8;"/>
      </defs>
      <g>
       <use style="stroke:#000000;stroke-width:0.8;" x="403.676509" xlink:href="#mbd7c5d8261" y="307.584"/>
      </g>
     </g>
     <g id="text_21">
      <!-- 15 -->
      <g transform="translate(410.676509 311.383219)scale(0.1 -0.1)">
       <use xlink:href="#DejaVuSans-49"/>
       <use x="63.623047" xlink:href="#DejaVuSans-53"/>
      </g>
     </g>
    </g>
    <g id="ytick_14">
     <g id="line2d_24">
      <g>
       <use style="stroke:#000000;stroke-width:0.8;" x="403.676509" xlink:href="#mbd7c5d8261" y="269.568"/>
      </g>
     </g>
     <g id="text_22">
      <!-- 20 -->
      <g transform="translate(410.676509 273.367219)scale(0.1 -0.1)">
       <use xlink:href="#DejaVuSans-50"/>
       <use x="63.623047" xlink:href="#DejaVuSans-48"/>
      </g>
     </g>
    </g>
    <g id="ytick_15">
     <g id="line2d_25">
      <g>
       <use style="stroke:#000000;stroke-width:0.8;" x="403.676509" xlink:href="#mbd7c5d8261" y="231.552"/>
      </g>
     </g>
     <g id="text_23">
      <!-- 25 -->
      <g transform="translate(410.676509 235.351219)scale(0.1 -0.1)">
       <use xlink:href="#DejaVuSans-50"/>
       <use x="63.623047" xlink:href="#DejaVuSans-53"/>
      </g>
     </g>
    </g>
    <g id="ytick_16">
     <g id="line2d_26">
      <g>
       <use style="stroke:#000000;stroke-width:0.8;" x="403.676509" xlink:href="#mbd7c5d8261" y="193.536"/>
      </g>
     </g>
     <g id="text_24">
      <!-- 30 -->
      <defs>
       <path d="M 40.578125 39.3125 
Q 47.65625 37.796875 51.625 33 
Q 55.609375 28.21875 55.609375 21.1875 
Q 55.609375 10.40625 48.1875 4.484375 
Q 40.765625 -1.421875 27.09375 -1.421875 
Q 22.515625 -1.421875 17.65625 -0.515625 
Q 12.796875 0.390625 7.625 2.203125 
L 7.625 11.71875 
Q 11.71875 9.328125 16.59375 8.109375 
Q 21.484375 6.890625 26.8125 6.890625 
Q 36.078125 6.890625 40.9375 10.546875 
Q 45.796875 14.203125 45.796875 21.1875 
Q 45.796875 27.640625 41.28125 31.265625 
Q 36.765625 34.90625 28.71875 34.90625 
L 20.21875 34.90625 
L 20.21875 43.015625 
L 29.109375 43.015625 
Q 36.375 43.015625 40.234375 45.921875 
Q 44.09375 48.828125 44.09375 54.296875 
Q 44.09375 59.90625 40.109375 62.90625 
Q 36.140625 65.921875 28.71875 65.921875 
Q 24.65625 65.921875 20.015625 65.03125 
Q 15.375 64.15625 9.8125 62.3125 
L 9.8125 71.09375 
Q 15.4375 72.65625 20.34375 73.4375 
Q 25.25 74.21875 29.59375 74.21875 
Q 40.828125 74.21875 47.359375 69.109375 
Q 53.90625 64.015625 53.90625 55.328125 
Q 53.90625 49.265625 50.4375 45.09375 
Q 46.96875 40.921875 40.578125 39.3125 
z
" id="DejaVuSans-51"/>
      </defs>
      <g transform="translate(410.676509 197.335219)scale(0.1 -0.1)">
       <use xlink:href="#DejaVuSans-51"/>
       <use x="63.623047" xlink:href="#DejaVuSans-48"/>
      </g>
     </g>
    </g>
    <g id="ytick_17">
     <g id="line2d_27">
      <g>
       <use style="stroke:#000000;stroke-width:0.8;" x="403.676509" xlink:href="#mbd7c5d8261" y="155.52"/>
      </g>
     </g>
     <g id="text_25">
      <!-- 35 -->
      <g transform="translate(410.676509 159.319219)scale(0.1 -0.1)">
       <use xlink:href="#DejaVuSans-51"/>
       <use x="63.623047" xlink:href="#DejaVuSans-53"/>
      </g>
     </g>
    </g>
    <g id="ytick_18">
     <g id="line2d_28">
      <g>
       <use style="stroke:#000000;stroke-width:0.8;" x="403.676509" xlink:href="#mbd7c5d8261" y="117.504"/>
      </g>
     </g>
     <g id="text_26">
      <!-- 40 -->
      <defs>
       <path d="M 37.796875 64.3125 
L 12.890625 25.390625 
L 37.796875 25.390625 
z
M 35.203125 72.90625 
L 47.609375 72.90625 
L 47.609375 25.390625 
L 58.015625 25.390625 
L 58.015625 17.1875 
L 47.609375 17.1875 
L 47.609375 0 
L 37.796875 0 
L 37.796875 17.1875 
L 4.890625 17.1875 
L 4.890625 26.703125 
z
" id="DejaVuSans-52"/>
      </defs>
      <g transform="translate(410.676509 121.303219)scale(0.1 -0.1)">
       <use xlink:href="#DejaVuSans-52"/>
       <use x="63.623047" xlink:href="#DejaVuSans-48"/>
      </g>
     </g>
    </g>
    <g id="ytick_19">
     <g id="line2d_29">
      <g>
       <use style="stroke:#000000;stroke-width:0.8;" x="403.676509" xlink:href="#mbd7c5d8261" y="79.488"/>
      </g>
     </g>
     <g id="text_27">
      <!-- 45 -->
      <g transform="translate(410.676509 83.287219)scale(0.1 -0.1)">
       <use xlink:href="#DejaVuSans-52"/>
       <use x="63.623047" xlink:href="#DejaVuSans-53"/>
      </g>
     </g>
    </g>
    <g id="ytick_20">
     <g id="line2d_30">
      <g>
       <use style="stroke:#000000;stroke-width:0.8;" x="403.676509" xlink:href="#mbd7c5d8261" y="41.472"/>
      </g>
     </g>
     <g id="text_28">
      <!-- 50 -->
      <g transform="translate(410.676509 45.271219)scale(0.1 -0.1)">
       <use xlink:href="#DejaVuSans-53"/>
       <use x="63.623047" xlink:href="#DejaVuSans-48"/>
      </g>
     </g>
    </g>
   </g>
   <g id="patch_13">
    <path d="M 390.370909 307.584 
L 390.370909 269.568 
L 390.370909 79.488 
L 390.370909 41.472 
L 403.676509 41.472 
L 403.676509 79.488 
L 403.676509 269.568 
L 403.676509 307.584 
z
" style="fill:none;stroke:#000000;stroke-linejoin:miter;stroke-width:0.8;"/>
   </g>
  </g>
 </g>
 <defs>
  <clipPath id="pcc4d9e49b1">
   <rect height="266.112" width="162.327273" x="57.6" y="41.472"/>
  </clipPath>
  <clipPath id="pfc2bdd9d55">
   <rect height="266.112" width="129.861818" x="252.392727" y="41.472"/>
  </clipPath>
  <clipPath id="pcb58a3ff93">
   <rect height="266.112" width="13.3056" x="390.370909" y="41.472"/>
  </clipPath>
 </defs>
</svg>
